<?xml version="1.0" encoding="UTF-8"?>
<svg width="140px" height="20px" viewBox="0 0 140 20" version="1.1" xmlns="http://www.w3.org/2000/svg" xmlns:xlink="http://www.w3.org/1999/xlink">
    <!-- Generator: Sketch 51.3 (57544) - http://www.bohemiancoding.com/sketch -->
    <title>blackrock-logo-sitemap</title>
    <desc>Created with Sketch.</desc>
    <defs></defs>
    <g id="blackrock-logo-sitemap" stroke="none" stroke-width="1" fill="none" fill-rule="evenodd">
        <g id="BlackRock_Wordmark_Blk_RGB" fill="#000000" fill-rule="nonzero">
            <path d="M17.8108108,19.4594595 L17.8108108,8.52651283e-14 L22.2432432,8.52651283e-14 L22.2432432,19.4594595 L17.8108108,19.4594595 Z M103.972973,12.1891892 C103.972973,7.48648649 100.324324,4.56756757 96.0540541,4.56756757 C91.7567568,4.56756757 88.1351351,7.51351351 88.1351351,12.1891892 C88.1351351,16.8918919 91.7837838,19.8378378 96.0540541,19.8378378 C100.324324,19.8378378 103.972973,16.8648649 103.972973,12.1891892 Z M99.5945946,12.1891892 C99.5945946,14.6486486 97.9459459,16.027027 96.027027,16.027027 C94.1081081,16.027027 92.4594595,14.6486486 92.4594595,12.1891892 C92.4594595,9.7027027 94.1081081,8.37837838 96.027027,8.37837838 C97.9459459,8.37837838 99.5945946,9.7027027 99.5945946,12.1891892 Z M16.027027,13.8648649 C16.027027,11.6756757 14.8918919,10 12.8648649,9.24324324 C14.7837838,8.18918919 15.4594595,6.81081081 15.4594595,5.18918919 C15.4594595,2.35135135 13.4054054,8.99141872e-14 8.81081081,0.027027027 L1.13686838e-13,0.027027027 L1.13686838e-13,19.4864865 L9.18918919,19.4864865 C13.8108108,19.4594595 16.027027,17.1621622 16.027027,13.8648649 Z M10.7567568,5.75675676 C10.7567568,7.08108108 9.91891892,7.83783784 8.2972973,7.83783784 L4.62162162,7.83783784 L4.62162162,3.78378378 L8.2972973,3.78378378 C9.78378378,3.78378378 10.7567568,4.43243243 10.7567568,5.75675676 Z M11.1621622,13.5675676 C11.1621622,14.8378378 10.2702703,15.6756757 8.62162162,15.6756757 L4.62162162,15.6756757 L4.62162162,11.4594595 L8.62162162,11.4594595 C10.2162162,11.4594595 11.1621622,12.2702703 11.1621622,13.5675676 Z M54.6216216,8.54054054 C53.4054054,6 51.1351351,4.59459459 47.7027027,4.59459459 C43.6486486,4.59459459 40.027027,7.13513514 40.027027,12.1891892 C40.027027,17.1081081 43.2162162,19.8378378 47.6486486,19.8378378 C50.7567568,19.8378378 53.3783784,18.5945946 54.6216216,15.9189189 L51.0540541,14.0810811 C50.4054054,15.2702703 49.4054054,16.027027 47.8108108,16.027027 C45.7567568,16.027027 44.4324324,14.5675676 44.4324324,12.1891892 C44.4324324,9.81081081 45.9459459,8.37837838 47.7837838,8.37837838 C49.2162162,8.37837838 50.2972973,9.02702703 50.972973,10.4324324 L54.6216216,8.54054054 Z M119.945946,8.54054054 C118.72973,6 116.459459,4.59459459 113.027027,4.59459459 C108.972973,4.59459459 105.351351,7.13513514 105.351351,12.1891892 C105.351351,17.1081081 108.540541,19.8378378 112.972973,19.8378378 C116.081081,19.8378378 118.702703,18.5945946 119.945946,15.9189189 L116.378378,14.0810811 C115.72973,15.2702703 114.72973,16.027027 113.135135,16.027027 C111.081081,16.027027 109.756757,14.5675676 109.756757,12.1891892 C109.756757,9.81081081 111.27027,8.37837838 113.108108,8.37837838 C114.540541,8.37837838 115.621622,9.02702703 116.297297,10.4324324 L119.945946,8.54054054 Z M82.7837838,19.4594595 L79.0810811,12.9189189 L76.2432432,12.9189189 L76.2432432,19.4594595 L71.6756757,19.4594595 L71.6756757,8.52651283e-14 L79.9189189,8.52651283e-14 C84.3783784,8.52651283e-14 87.4864865,2.13513514 87.4864865,6.32432432 C87.4864865,9 86.1621622,10.8918919 83.8108108,12.0540541 L88.0810811,19.4594595 L82.7837838,19.4594595 Z M76.2702703,9.05405405 L79.6756757,9.05405405 C81.7837838,9.05405405 82.8108108,7.86486486 82.8108108,6.45945946 C82.8108108,4.78378378 81.8378378,3.86486486 79.6756757,3.86486486 L76.2702703,3.86486486 L76.2702703,9.05405405 Z M39.2972973,19.2162162 L39.2972973,16.1621622 C39.1081081,16.2162162 38.8378378,16.2702703 38.5405405,16.2702703 C37.972973,16.2702703 37.6756757,15.972973 37.6756757,15.4594595 L37.6756757,10.4054054 C37.6756757,6.62162162 35.1351351,4.62162162 30.9459459,4.62162162 C28.2162162,4.62162162 25.8918919,5.62162162 24.4324324,6.91891892 L26.8918919,9.67567568 C27.8648649,8.81081081 29.1621622,8.27027027 30.4324324,8.27027027 C32.3783784,8.27027027 33.2972973,9.24324324 33.2972973,10.8378378 L33.2972973,11.2972973 C32.3783784,11.0810811 31.2162162,10.8648649 29.8108108,10.8648649 C26.2702703,10.8648649 23.972973,12.5675676 23.972973,15.3783784 C23.972973,18.2702703 25.8918919,19.7837838 28.8648649,19.7837838 C30.8918919,19.7837838 32.7027027,18.9459459 33.6486486,17.8648649 C34.2162162,19.2972973 35.4594595,19.6756757 36.6756757,19.6756757 C37.5135135,19.7027027 38.4864865,19.5675676 39.2972973,19.2162162 Z M33.3243243,14.6486486 C33.3243243,15.972973 32.0540541,16.8378378 30.5945946,16.8378378 C29.2162162,16.8378378 28.5405405,16.1351351 28.5405405,15.1621622 C28.5405405,14.1351351 29.2972973,13.3783784 30.8378378,13.3783784 C31.7837838,13.3783784 32.6216216,13.5405405 33.3243243,13.7027027 L33.3243243,14.6486486 Z M135.783784,19.4594595 L130.567568,10.4054054 L135.459459,5.08108108 L130.540541,5.08108108 L125.378378,10.8108108 L125.378378,0.027027027 L120.972973,0.027027027 L120.972973,19.4864865 L125.378378,19.4864865 L125.378378,15.972973 L127.486486,13.7297297 L130.783784,19.4864865 L135.783784,19.4864865 L135.783784,19.4594595 Z M70.5135135,19.4594595 L65.2972973,10.4054054 L70.1891892,5.08108108 L65.2162162,5.08108108 L60.1081081,10.8108108 L60.1081081,0.027027027 L55.7027027,0.027027027 L55.7027027,19.4864865 L60.1081081,19.4864865 L60.1081081,15.972973 L62.2162162,13.7297297 L65.5135135,19.4864865 L70.5135135,19.4864865 L70.5135135,19.4594595 Z M138.486486,16.7567568 C139.405405,16.7567568 139.945946,17.3243243 139.945946,18.1891892 C139.945946,19.0540541 139.405405,19.6216216 138.486486,19.6216216 C137.567568,19.6216216 137.027027,19.0540541 137.027027,18.1891892 C137.027027,17.3243243 137.567568,16.7567568 138.486486,16.7567568 Z M138.486486,19.4324324 C139.216216,19.4324324 139.702703,19 139.702703,18.1891892 C139.702703,17.3783784 139.189189,16.9459459 138.486486,16.9459459 C137.756757,16.9459459 137.27027,17.3783784 137.27027,18.1891892 C137.243243,19.027027 137.756757,19.4324324 138.486486,19.4324324 Z M137.918919,17.4594595 L138.513514,17.4594595 C138.864865,17.4594595 139.054054,17.6486486 139.054054,17.9189189 C139.054054,18.1621622 138.945946,18.2972973 138.756757,18.3783784 L139.027027,18.8918919 L138.756757,18.8918919 L138.513514,18.4324324 L138.189189,18.4324324 L138.189189,18.8918919 L137.918919,18.8918919 L137.918919,17.4594595 Z M138.189189,17.6756757 L138.189189,18.1891892 L138.486486,18.1891892 C138.675676,18.1891892 138.783784,18.1351351 138.783784,17.9459459 C138.783784,17.7837838 138.702703,17.7027027 138.513514,17.7027027 L138.189189,17.7027027 L138.189189,17.6756757 Z" id="Shape"></path>
        </g>
    </g>
</svg>